<?xml version="1.0" encoding="iso-8859-1"?>
<!-- Uploaded to: SVG Repo, www.svgrepo.com, Generator: SVG Repo Mixer Tools -->
<svg version="1.1" id="Layer_1" xmlns="http://www.w3.org/2000/svg" xmlns:xlink="http://www.w3.org/1999/xlink" 
	 viewBox="0 0 511.996 511.996" xml:space="preserve">
<path style="fill:#3BAFDA;" d="M437.324,74.659H53.327c-5.891,0-10.656,4.781-10.656,10.672s4.766,10.656,10.656,10.656h383.997
	c5.891,0,10.672-4.766,10.672-10.656S443.215,74.659,437.324,74.659z"/>
<path style="fill:#E6E9ED;" d="M501.324,117.331H10.671C4.78,117.331,0,122.112,0,127.987v160.007
	c0,23.562,19.109,42.656,42.671,42.656h426.653c23.562,0,42.672-19.094,42.672-42.656V127.987
	C511.996,122.112,507.215,117.331,501.324,117.331z"/>
<g>
	<rect x="95.998" y="282.998" style="fill:#CCD1D9;" width="21.328" height="47.594"/>
	<rect x="53.328" y="282.998" style="fill:#CCD1D9;" width="21.344" height="47.594"/>
	<rect x="138.668" y="282.998" style="fill:#CCD1D9;" width="21.328" height="47.594"/>
	<rect x="181.328" y="282.998" style="fill:#CCD1D9;" width="21.344" height="47.594"/>
	<rect x="223.998" y="282.998" style="fill:#CCD1D9;" width="21.328" height="47.594"/>
	<rect x="266.668" y="282.998" style="fill:#CCD1D9;" width="21.328" height="47.594"/>
	<rect x="309.328" y="282.998" style="fill:#CCD1D9;" width="21.344" height="47.594"/>
	<rect x="351.998" y="282.998" style="fill:#CCD1D9;" width="21.328" height="47.594"/>
	<rect x="394.668" y="282.998" style="fill:#CCD1D9;" width="21.328" height="47.594"/>
	<rect x="437.328" y="282.998" style="fill:#CCD1D9;" width="21.344" height="47.594"/>
</g>
<g>
	<path style="fill:#E6E9ED;" d="M346.076,376.775c1.078-4.188,3.592-7.469,3.607-7.5l-0.047,0.094l0,0
		c1.469-1.844,2.359-4.156,2.359-6.719c0-5.875-4.779-10.656-10.67-10.656c-3.344,0-6.344,1.562-8.297,3.969l0,0
		c-0.516,0.625-5.016,6.375-7.344,14.469c-3.422,11.969-0.562,23.312,8.094,31.999c3.062,3.094,3.906,6.156,2.828,10.312
		c-1.062,4.031-3.531,7.156-3.547,7.188l0.031-0.062c-1.516,1.844-2.422,4.219-2.422,6.781c0,5.906,4.766,10.688,10.656,10.688
		c3.312,0,6.266-1.5,8.217-3.875l0,0h0.016v-0.031c0.594-0.688,5.078-6.312,7.391-14.25c3.469-11.812,0.594-23.094-8.062-31.812
		C345.795,384.275,344.951,381.088,346.076,376.775z M333.107,419.868h0.016l0,0H333.107z"/>
	<path style="fill:#E6E9ED;" d="M260.748,376.775c1.078-4.188,3.578-7.469,3.609-7.5l-0.062,0.094l0,0
		c1.484-1.844,2.375-4.156,2.375-6.719c0-5.875-4.781-10.656-10.672-10.656c-3.359,0-6.344,1.562-8.297,3.969l0,0
		c-0.516,0.625-5.016,6.375-7.344,14.469c-3.438,11.969-0.562,23.312,8.078,31.999c3.078,3.094,3.922,6.156,2.844,10.312
		c-1.062,4.031-3.531,7.156-3.547,7.188l0.031-0.062c-1.516,1.844-2.438,4.219-2.438,6.781c0,5.906,4.781,10.688,10.672,10.688
		c3.297,0,6.25-1.5,8.219-3.875l0,0c0,0,0,0,0.016,0v-0.031c0.578-0.688,5.062-6.312,7.391-14.25
		c3.453-11.812,0.594-23.094-8.062-31.812C260.467,384.275,259.623,381.088,260.748,376.775z M247.764,419.868h0.016l0,0
		C247.779,419.868,247.779,419.868,247.764,419.868z"/>
	<path style="fill:#E6E9ED;" d="M442.293,419.181c3.453-11.812,0.594-23.094-8.078-31.812c-3.078-3.094-3.922-6.281-2.812-10.594
		c1.078-4.188,3.594-7.469,3.625-7.5l-0.062,0.094l0,0c1.469-1.844,2.359-4.156,2.359-6.719c0-5.875-4.766-10.656-10.656-10.656
		c-3.359,0-6.344,1.562-8.312,3.969l0,0c-0.5,0.625-5.016,6.375-7.328,14.469c-3.438,11.969-0.562,23.312,8.078,31.999
		c3.078,3.094,3.922,6.156,2.828,10.312c-1.047,4.031-3.516,7.156-3.547,7.188l0.047-0.062c-1.531,1.844-2.438,4.219-2.438,6.781
		c0,5.906,4.781,10.688,10.672,10.688c3.297,0,6.25-1.5,8.203-3.875l0,0c0.016,0,0.016,0,0.016,0l0.016-0.031
		C435.48,432.743,439.965,427.118,442.293,419.181z M418.434,419.868h0.016l0,0H418.434z"/>
	<path style="fill:#E6E9ED;" d="M175.404,376.775c1.078-4.188,3.594-7.469,3.625-7.5l-0.062,0.094l0,0
		c1.469-1.844,2.359-4.156,2.359-6.719c0-5.875-4.766-10.656-10.656-10.656c-3.359,0-6.344,1.562-8.312,3.969l0,0
		c-0.5,0.625-5.016,6.375-7.328,14.469c-3.438,11.969-0.562,23.312,8.078,31.999c3.078,3.094,3.922,6.156,2.828,10.312
		c-1.047,4.031-3.516,7.156-3.547,7.188l0.047-0.062c-1.531,1.844-2.438,4.219-2.438,6.781c0,5.906,4.781,10.688,10.672,10.688
		c3.297,0,6.25-1.5,8.203-3.875l0,0c0.016,0,0.016,0,0.016,0l0.016-0.031c0.578-0.688,5.062-6.312,7.391-14.25
		c3.453-11.812,0.594-23.094-8.078-31.812C175.139,384.275,174.295,381.088,175.404,376.775z M162.436,419.868h0.016l0,0H162.436z"
		/>
	<path style="fill:#E6E9ED;" d="M90.077,376.775c1.078-4.188,3.594-7.469,3.609-7.5l-0.047,0.094l0,0
		c1.469-1.844,2.359-4.156,2.359-6.719c0-5.875-4.781-10.656-10.671-10.656c-3.344,0-6.344,1.562-8.297,3.969l0,0
		c-0.516,0.625-5.016,6.375-7.344,14.469c-3.422,11.969-0.547,23.312,8.094,31.999c3.062,3.094,3.906,6.156,2.828,10.312
		c-1.062,4.031-3.531,7.156-3.547,7.188l0.031-0.062c-1.516,1.844-2.422,4.219-2.422,6.781c0,5.906,4.766,10.688,10.656,10.688
		c3.312,0,6.265-1.5,8.218-3.875l0,0h0.016v-0.031c0.594-0.688,5.078-6.312,7.391-14.25c3.469-11.812,0.594-23.094-8.062-31.812
		C89.795,384.275,88.952,381.088,90.077,376.775z M77.108,419.868h0.016l0,0H77.108z"/>
</g>
<path style="fill:#4FC2E9;" d="M501.324,85.331H10.671C4.78,85.331,0,90.097,0,95.987v159.999c0,23.57,19.109,42.664,42.671,42.664
	h426.653c23.562,0,42.672-19.094,42.672-42.664V95.987C511.996,90.097,507.215,85.331,501.324,85.331z"/>
<g>
	<path style="fill:#E6E9ED;" d="M469.324,255.986c0,5.906-4.766,10.672-10.656,10.672s-10.672-4.766-10.672-10.672
		c0-5.875,4.781-10.656,10.672-10.656S469.324,250.111,469.324,255.986z"/>
	<path style="fill:#E6E9ED;" d="M437.324,255.986c0,5.906-4.766,10.672-10.656,10.672s-10.672-4.766-10.672-10.672
		c0-5.875,4.781-10.656,10.672-10.656S437.324,250.111,437.324,255.986z"/>
</g>
<path style="fill:#3BAFDA;" d="M319.998,245.33h-128c-5.891,0-10.672,4.781-10.672,10.656c0,5.906,4.781,10.672,10.672,10.672h128
	c5.891,0,10.672-4.766,10.672-10.672C330.67,250.111,325.889,245.33,319.998,245.33z"/>
</svg>