<?xml version="1.0" encoding="iso-8859-1"?>
<!-- Uploaded to: SVG Repo, www.svgrepo.com, Generator: SVG Repo Mixer Tools -->
<svg version="1.1" id="Layer_1" xmlns="http://www.w3.org/2000/svg" xmlns:xlink="http://www.w3.org/1999/xlink" 
	 viewBox="0 0 512 512" xml:space="preserve">
<path style="fill:#B5DDF8;" d="M329.687,132.492v106.174c0,15.265-8.775,28.489-21.56,34.89c-5.964,2.99-12.819,4.497-20.04,4.031
	c-20.677-1.333-36.424-19.199-36.424-39.919v-46.491c0-7.429-3.011-14.177-7.884-19.049c-5.301-5.3-12.821-8.398-21.024-7.812
	c-14.192,1.013-24.94,13.328-24.94,27.555v19.291c0,8.608-3.495,16.415-9.139,22.059c-5.662,5.663-13.487,9.162-22.145,9.139
	c-17.12-0.047-31.112-15.002-31.112-32.122v-19.061c0-14.874-12.058-26.931-26.931-26.931h-0.908
	c-14.874,0-26.931,12.058-26.931,26.931v81.432c0,13.089-7.822,24.331-19.035,29.369L77.36,461.473h356.592l32.483-328.982
	L329.687,132.492L329.687,132.492z"/>
<path style="fill:#F4D15A;" d="M16.241,50.527v222.082c0,17.786,14.419,32.205,32.205,32.205l0,0
	c17.786,0,32.205-14.419,32.205-32.205v-81.432c0-14.874,12.058-26.931,26.931-26.931h0.908c14.874,0,26.931,12.058,26.931,26.931
	v19.059c0,17.12,13.992,32.077,31.112,32.122c8.658,0.023,16.483-3.476,22.145-9.139c5.644-5.644,9.139-13.451,9.139-22.059v-19.291
	c0-14.227,10.748-26.54,24.94-27.555c8.203-0.586,15.723,2.511,21.024,7.812c4.872,4.872,7.884,11.621,7.884,19.049v46.492
	c0,20.719,15.748,38.586,36.424,39.919c7.221,0.466,14.075-1.041,20.04-4.031c12.785-6.401,21.56-19.624,21.56-34.89V50.527H16.241z
	"/>
<rect x="329.682" y="50.527" style="fill:#074761;" width="166.067" height="81.97"/>
<path d="M495.759,34.285H329.687H16.241C7.271,34.285,0,41.557,0,50.527v222.082c0,26.287,21.049,47.736,47.174,48.414
	l14.024,142.046c0.82,8.312,7.812,14.646,16.163,14.646h356.592c8.351,0,15.342-6.334,16.163-14.646l31.037-314.337h14.604
	c8.97,0,16.241-7.271,16.241-16.241V50.527C512,41.557,504.729,34.285,495.759,34.285z M479.517,116.25h-13.081h-120.51V66.768
	h133.589v49.482H479.517z M32.483,272.608V66.768h280.963v65.724v106.174c0,8.674-4.824,16.478-12.598,20.371
	c-3.581,1.795-7.63,2.608-11.713,2.34c-11.905-0.767-21.229-11.182-21.229-23.711v-46.491c0-5.048-0.859-9.964-2.508-14.578
	c-2.119-5.933-5.546-11.371-10.131-15.955c-0.997-0.997-2.042-1.929-3.12-2.816c-6.709-5.514-14.909-8.866-23.542-9.644
	c-2.16-0.195-4.348-0.219-6.544-0.086c-0.154,0.01-0.307,0.01-0.461,0.021c-12.624,0.901-23.709,7.377-30.993,16.953
	c-0.404,0.533-0.797,1.074-1.179,1.624c-1.142,1.652-2.176,3.386-3.089,5.191c-3.045,6.017-4.762,12.821-4.762,19.987v19.291
	c0,0.499-0.024,0.994-0.073,1.484c-0.336,3.433-1.837,6.617-4.31,9.089c-2.816,2.818-6.558,4.371-10.541,4.379
	c-0.016,0-0.034,0.002-0.05,0.002c-0.008,0-0.016,0-0.026,0c-6.951-0.019-13.157-5.702-14.599-12.775
	c-0.206-1.01-0.315-2.05-0.315-3.104v-19.061c0-23.805-19.366-43.173-43.173-43.173h-0.908c-23.805,0-43.173,19.368-43.173,43.173
	v81.432c0,0.71-0.062,1.41-0.154,2.102c-0.021,0.156-0.045,0.309-0.071,0.463c-0.109,0.664-0.247,1.32-0.437,1.959
	c-0.003,0.013-0.007,0.028-0.01,0.041c-0.211,0.703-0.474,1.387-0.78,2.051c-0.024,0.052-0.05,0.104-0.075,0.156
	c-0.627,1.33-1.431,2.571-2.399,3.682c-0.011,0.013-0.024,0.026-0.036,0.039c-1.489,1.7-3.346,3.1-5.488,4.062
	c-0.107,0.049-0.208,0.106-0.315,0.158c-1.907,0.807-4.002,1.254-6.199,1.254C39.643,288.572,32.483,281.411,32.483,272.608z
	 M419.238,445.232H92.078l-4.775-48.367h245.908c8.97,0,16.241-7.271,16.241-16.241s-7.271-16.241-16.241-16.241H84.096
	l-5.334-54.019c0.049-0.039,0.094-0.083,0.143-0.122c0.594-0.482,1.177-0.979,1.749-1.489c0.067-0.058,0.135-0.115,0.201-0.174
	c1.299-1.171,2.53-2.413,3.697-3.718c0.088-0.097,0.171-0.198,0.257-0.296c0.49-0.557,0.97-1.126,1.434-1.705
	c0.089-0.11,0.175-0.223,0.263-0.335c0.469-0.596,0.924-1.202,1.366-1.819c0.057-0.08,0.112-0.158,0.169-0.237
	c3.531-5.002,6.136-10.698,7.572-16.842c0.021-0.086,0.041-0.174,0.06-0.26c0.171-0.749,0.323-1.502,0.458-2.264
	c0.028-0.151,0.055-0.3,0.081-0.452c0.117-0.698,0.218-1.402,0.304-2.11c0.024-0.197,0.054-0.391,0.075-0.588
	c0.075-0.682,0.132-1.371,0.177-2.061c0.015-0.208,0.036-0.413,0.047-0.62c0.049-0.884,0.076-1.77,0.076-2.665v-81.432
	c0-5.894,4.796-10.69,10.69-10.69h0.908c5.894,0,10.69,4.796,10.69,10.69v19.059c0,19.61,12.187,36.97,29.098,44.454
	c0.184,0.081,0.37,0.151,0.555,0.229c0.525,0.224,1.049,0.45,1.584,0.655c5.045,1.939,10.464,3.011,16.074,3.026
	c0.042,0,0.086,0,0.13,0c4.752,0,9.397-0.694,13.82-2.033c0.313-0.094,0.62-0.206,0.932-0.307c0.421-0.136,0.843-0.266,1.26-0.416
	c1.444-0.516,2.86-1.103,4.245-1.757c0.005-0.002,0.01-0.003,0.015-0.006c2.781-1.316,5.436-2.909,7.934-4.764
	c1.873-1.392,3.658-2.93,5.337-4.611c6.721-6.721,11.177-15.101,12.985-24.217c0.603-3.039,0.911-6.159,0.911-9.326V191.87
	c0-1.835,0.432-3.594,1.19-5.157c1.671-3.438,4.928-5.93,8.665-6.196c0.538-0.039,1.051-0.039,1.541-0.008
	c3.429,0.218,5.714,1.977,6.841,3.105c2.016,2.016,3.126,4.702,3.126,7.564v46.491c0,29.606,22.674,54.26,51.621,56.127
	c9.836,0.632,19.639-1.345,28.354-5.717c18.832-9.428,30.53-28.362,30.53-49.412v-89.933h102.586L419.238,445.232z"/>
<path d="M381.935,396.861c-1.056,0-2.128-0.097-3.167-0.309c-1.039-0.211-2.063-0.52-3.053-0.926
	c-0.974-0.406-1.916-0.91-2.794-1.494c-0.893-0.601-1.722-1.267-2.469-2.03c-0.747-0.747-1.429-1.575-2.014-2.469
	c-0.585-0.877-1.088-1.819-1.494-2.793s-0.731-1.998-0.926-3.037c-0.211-1.056-0.325-2.111-0.325-3.183
	c0-1.056,0.114-2.128,0.325-3.167c0.195-1.039,0.52-2.063,0.926-3.037c0.406-0.991,0.91-1.933,1.494-2.81
	c0.585-0.893,1.267-1.722,2.014-2.469c0.747-0.747,1.575-1.429,2.469-2.014c0.877-0.585,1.819-1.088,2.794-1.494
	c0.991-0.406,2.014-0.715,3.053-0.926c2.095-0.422,4.239-0.422,6.334,0c1.039,0.211,2.063,0.52,3.053,0.926
	c0.974,0.406,1.916,0.91,2.793,1.494c0.893,0.585,1.722,1.267,2.469,2.014s1.429,1.575,2.014,2.469
	c0.585,0.877,1.088,1.819,1.494,2.81c0.406,0.974,0.731,1.998,0.926,3.037c0.211,1.039,0.325,2.111,0.325,3.167
	c0,1.072-0.114,2.128-0.325,3.183c-0.195,1.039-0.52,2.063-0.926,3.037c-0.406,0.974-0.91,1.916-1.494,2.793
	c-0.585,0.893-1.267,1.722-2.014,2.469c-0.747,0.763-1.575,1.429-2.469,2.03c-0.877,0.585-1.819,1.088-2.793,1.494
	c-0.991,0.406-2.014,0.715-3.053,0.926C384.063,396.763,382.991,396.861,381.935,396.861z"/>
</svg>