<?xml version="1.0" encoding="iso-8859-1"?>
<!-- Uploaded to: SVG Repo, www.svgrepo.com, Generator: SVG Repo Mixer Tools -->
<svg height="800px" width="800px" version="1.1" id="Layer_1" xmlns="http://www.w3.org/2000/svg" xmlns:xlink="http://www.w3.org/1999/xlink" 
	 viewBox="0 0 512 512" xml:space="preserve">
<circle style="fill:#71E2EF;" cx="256" cy="256" r="256"/>
<path style="fill:#38C6D9;" d="M289.832,509.771c105.546-13.936,190.802-92.167,215.15-194.06l0.933-4.051
	C509.888,293.738,512,275.118,512,256c0-6.258-0.236-12.46-0.678-18.604l-67.382-67.382l-68.91,53.674l14.71,14.71L70.799,290.738
	L289.832,509.771z"/>
<path style="fill:#386895;" d="M421.216,298.513H90.784c-16.339,0-29.586-13.246-29.586-29.586v-79.972
	c0-16.339,13.246-29.586,29.586-29.586h330.431c16.339,0,29.586,13.246,29.586,29.586v79.972
	C450.801,285.267,437.555,298.513,421.216,298.513z"/>
<g>
	<path style="fill:#273B7A;" d="M421.216,159.368H255.857v139.143h165.359c16.339,0,29.586-13.246,29.586-29.586v-79.972
		C450.801,172.615,437.555,159.368,421.216,159.368z"/>
	<path style="fill:#273B7A;" d="M450.801,188.954c0-16.339-13.246-29.586-29.586-29.586H90.784
		c-16.339,0-29.586,13.246-29.586,29.586v1.195h389.603V188.954z"/>
</g>
<path style="fill:#121149;" d="M450.801,188.954c0-16.339-13.246-29.586-29.586-29.586H255.857v30.78h194.944V188.954z"/>
<g>
	<path style="fill:#273B7A;" d="M392.614,261.079H119.386c-2.381,0-4.31-1.929-4.31-4.31s1.929-4.31,4.31-4.31h273.229
		c2.381,0,4.31,1.929,4.31,4.31S394.995,261.079,392.614,261.079z"/>
	<path style="fill:#273B7A;" d="M392.614,239.997H119.386c-2.381,0-4.31-1.929-4.31-4.31s1.929-4.31,4.31-4.31h273.229
		c2.381,0,4.31,1.929,4.31,4.31S394.995,239.997,392.614,239.997z"/>
	<path style="fill:#273B7A;" d="M392.614,218.914H119.386c-2.381,0-4.31-1.929-4.31-4.31s1.929-4.31,4.31-4.31h273.229
		c2.381,0,4.31,1.929,4.31,4.31S394.995,218.914,392.614,218.914z"/>
</g>
<g>
	<path style="fill:#121149;" d="M392.614,252.459H256.719v8.62h135.896c2.381,0,4.31-1.929,4.31-4.31
		S394.995,252.459,392.614,252.459z"/>
	<path style="fill:#121149;" d="M392.614,231.377H256.719v8.62h135.896c2.381,0,4.31-1.929,4.31-4.31
		S394.995,231.377,392.614,231.377z"/>
	<path style="fill:#121149;" d="M392.614,210.294H256.719v8.62h135.896c2.381,0,4.31-1.929,4.31-4.31
		S394.995,210.294,392.614,210.294z"/>
</g>
<g>
	<path style="fill:#FFFFFF;" d="M353.401,372.395c-2.381,0-4.31-1.929-4.31-4.31v-83.487c0-2.381,1.929-4.31,4.31-4.31
		s4.31,1.929,4.31,4.31v83.487C357.71,370.464,355.781,372.395,353.401,372.395z"/>
	<path style="fill:#FFFFFF;" d="M256,428.053c-2.381,0-4.31-1.929-4.31-4.31V284.598c0-2.381,1.929-4.31,4.31-4.31
		s4.31,1.929,4.31,4.31v139.145C260.31,426.124,258.381,428.053,256,428.053z"/>
	<path style="fill:#FFFFFF;" d="M158.599,372.395c-2.381,0-4.31-1.929-4.31-4.31v-83.487c0-2.381,1.929-4.31,4.31-4.31
		s4.31,1.929,4.31,4.31v83.487C162.909,370.464,160.98,372.395,158.599,372.395z"/>
	<path style="fill:#FFFFFF;" d="M207.3,400.224c-2.381,0-4.31-1.929-4.31-4.31V284.598c0-2.381,1.929-4.31,4.31-4.31
		s4.31,1.929,4.31,4.31v111.316C211.609,398.295,209.68,400.224,207.3,400.224z"/>
	<path style="fill:#FFFFFF;" d="M304.7,400.224c-2.381,0-4.31-1.929-4.31-4.31V284.598c0-2.381,1.929-4.31,4.31-4.31
		s4.31,1.929,4.31,4.31v111.316C309.01,398.295,307.081,400.224,304.7,400.224z"/>
</g>
</svg>