<?xml version="1.0" encoding="iso-8859-1"?>
<!-- Uploaded to: SVG Repo, www.svgrepo.com, Generator: SVG Repo Mixer Tools -->
<svg height="800px" width="800px" version="1.1" id="Layer_1" xmlns="http://www.w3.org/2000/svg" xmlns:xlink="http://www.w3.org/1999/xlink" 
	 viewBox="0 0 512.001 512.001" xml:space="preserve">
<path style="fill:#FEBBA0;" d="M213.906,319.222v20.344c0,6.797-4.087,12.927-10.361,15.542l-67.214,28.006
	c-14.2,5.917-23.449,21.999-23.449,37.382v81.059h286.237v-81.059c0-15.383-9.25-31.466-23.449-37.382l-67.214-28.006
	c-6.275-2.614-10.361-8.746-10.361-15.542v-20.344H213.906z"/>
<g>
	<path style="fill:#FFA036;" d="M375.669,383.115l-67.214-28.006c-5.198-2.165-8.886-6.747-10.001-12.119
		c-8.88,14.058-24.546,23.403-42.403,23.403c-17.909,0-33.615-9.399-42.481-23.526c-1.084,5.424-4.787,10.059-10.025,12.242
		l-67.214,28.006c-14.2,5.917-23.449,21.999-23.449,37.382v81.059h286.236v-81.06C399.118,405.115,389.868,389.032,375.669,383.115z
		"/>
	<path style="fill:#FFA036;" d="M213.569,342.868c-1.084,5.424-4.787,10.059-10.025,12.242l-1.627,0.678l19.494,54.602
		l34.639-43.996C238.141,366.394,222.435,356.995,213.569,342.868z"/>
	<path style="fill:#FFA036;" d="M298.535,342.868c1.085,5.424,4.787,10.059,10.025,12.242l1.627,0.678l-19.494,54.602
		l-34.639-43.996C273.962,366.394,289.668,356.995,298.535,342.868z"/>
</g>
<path style="fill:#FEBBA0;" d="M349.994,199.316v-30.431c0-51.81-42.001-93.81-93.81-93.81c-51.81,0-93.81,42.001-93.81,93.81
	h-0.368v30.431c-12.92,0-23.394,10.474-23.394,23.394s10.474,23.394,23.394,23.394v17.465c1.126,14.729,8.308,27.842,19.184,35.024
	l56.552,32.33c11.355,7.5,25.163,7.5,36.519,0l56.382-32.33c10.875-7.182,18.225-20.295,19.352-35.024v-17.465
	c12.92,0,23.394-10.474,23.394-23.394C373.387,209.788,362.914,199.316,349.994,199.316z"/>
<g>
	<path style="fill:#FFA036;" d="M371.042,143.357h-6.439c-1.74-27.247-13.416-52.602-33.123-71.725
		c-14.544-14.113-32.358-23.741-51.678-28.187V28.026c0-2.31-1.665-4.183-3.719-4.183h-40.166c-2.054,0-3.719,1.873-3.719,4.183
		v14.982c-20.083,4.231-38.621,14.03-53.661,28.624c-19.707,19.123-31.385,44.478-33.124,71.725h-4.455
		c-2.054,0-3.719,1.665-3.719,3.719v20.827c0,2.054,1.665,3.719,3.719,3.719h230.085c2.054,0,3.719-1.665,3.719-3.719v-20.827
		C374.762,145.022,373.097,143.357,371.042,143.357z"/>
	<path style="fill:#FFA036;" d="M66.634,270.609c-30.933,0-56.011,25.072-56.011,56.004c0,21.105,12.13,40.055,29.367,49.605h3.638
		H93.5l0,0c17.123-9.589,29.145-28.587,29.145-49.605C122.645,295.681,97.568,270.609,66.634,270.609z"/>
</g>
<path style="fill:#3F5968;" d="M93.499,376.213v16.355c0,14.779-12.021,26.762-26.853,26.762l0,0
	c-14.831,0-26.853-11.983-26.853-26.762v-16.355H93.499z"/>
<path style="fill:#FF504E;" d="M57.028,97.622l-14.235,62.77c-0.829,3.657,0.297,4.168,2.501,1.135l58.291-80.184
	c2.203-3.033,0.939-5.513-2.811-5.513H70.1l8.501-62.295c0.505-3.714-0.7-4.147-2.68-0.963L26.629,91.833
	c-1.978,3.184-0.531,5.789,3.22,5.789H57.028z"/>
<polygon style="fill:#ECEBED;" points="467.538,55.608 456.572,55.608 445.606,55.608 434.118,95.034 456.572,116.443 
	479.026,95.034 "/>
<path style="fill:#314967;" d="M479.648,200.83v94.05c0,12.692-10.384,23.078-23.078,23.078l0,0
	c-12.692,0-23.078-10.385-23.078-23.078v-94.05L479.648,200.83L479.648,200.83z"/>
<path d="M10.709,512.001h-0.137c-5.767,0-10.444-4.676-10.444-10.444c0-5.768,4.677-10.444,10.444-10.444h0.137
	c5.767,0,10.444,4.676,10.444,10.444C21.153,507.325,16.476,512.001,10.709,512.001z"/>
<path d="M501.429,512.001h-0.137c-5.767,0-10.444-4.676-10.444-10.444c0-5.768,4.677-10.444,10.444-10.444h0.137
	c5.767,0,10.444,4.676,10.444,10.444C511.872,507.325,507.196,512.001,501.429,512.001z"/>
<path d="M256.044,292.565c-11.386,0-20.649-9.264-20.649-20.649c0-5.768,4.677-10.444,10.444-10.444h20.411
	c5.767,0,10.444,4.676,10.444,10.444C276.693,283.301,267.43,292.565,256.044,292.565z"/>
<path d="M296.564,467.092h-0.137c-5.767,0-10.444-4.676-10.444-10.444s4.677-10.444,10.444-10.444h0.137
	c5.767,0,10.444,4.676,10.444,10.444S302.331,467.092,296.564,467.092z"/>
<path d="M369.533,467.092H330.35c-5.767,0-10.444-4.676-10.444-10.444s4.677-10.444,10.444-10.444h39.183
	c5.767,0,10.444,4.676,10.444,10.444S375.3,467.092,369.533,467.092z"/>
<path d="M215.321,467.092h-0.137c-5.767,0-10.444-4.676-10.444-10.444s4.677-10.444,10.444-10.444h0.137
	c5.767,0,10.444,4.676,10.444,10.444S221.088,467.092,215.321,467.092z"/>
<path d="M181.396,467.092h-39.183c-5.767,0-10.444-4.676-10.444-10.444s4.677-10.444,10.444-10.444h39.183
	c5.767,0,10.444,4.676,10.444,10.444S187.164,467.092,181.396,467.092z"/>
<path d="M66.681,253.006c-5.767,0-10.444-4.676-10.444-10.444v-14.108c0-5.768,4.677-10.444,10.444-10.444
	s10.444,4.676,10.444,10.444v14.108C77.125,248.33,72.449,253.006,66.681,253.006z"/>
<path d="M22.926,269.678c-2.673,0-5.344-1.019-7.383-3.058l-9.981-9.976c-4.079-4.078-4.08-10.69-0.003-14.771
	c4.076-4.079,10.69-4.08,14.77-0.002l9.981,9.976c4.079,4.078,4.08,10.69,0.003,14.771
	C28.273,268.657,25.598,269.678,22.926,269.678z"/>
<path d="M111.196,268.922c-2.674,0-5.346-1.02-7.385-3.059c-4.078-4.079-4.078-10.691,0.001-14.77l9.978-9.977
	c4.078-4.078,10.692-4.077,14.77,0c4.078,4.079,4.078,10.691-0.001,14.77l-9.978,9.977
	C116.541,267.903,113.868,268.922,111.196,268.922z"/>
<path d="M133.088,326.612c0-36.64-29.812-66.448-66.455-66.448s-66.454,29.81-66.454,66.448c0,21.801,11.269,42.832,29.17,55.264
	v10.691c0,20.516,16.732,37.206,37.297,37.206s37.297-16.69,37.297-37.206v-10.59C121.821,369.536,133.088,348.446,133.088,326.612z
	 M66.666,346.137l-5.652-15.328l5.151-4.168l6.061,4.418L66.666,346.137z M66.646,408.886c-9.048,0-16.409-7.32-16.409-16.318
	v-5.907h32.818v5.907C83.055,401.565,75.694,408.886,66.646,408.886z M90.623,365.769h-8.933l19.778-53.644
	c1.995-5.412-0.774-11.417-6.187-13.412c-5.408-1.995-11.416,0.775-13.412,6.186l-2.133,5.786l-7.753-5.651
	c-3.822-2.786-9.043-2.655-12.722,0.322l-5.879,4.758l-1.916-5.199c-1.996-5.413-7.998-8.182-13.413-6.186
	c-5.412,1.996-8.181,8-6.186,13.412l19.774,53.629h-8.806c-13.301-8.403-21.769-23.498-21.769-39.157
	c0-25.122,20.441-45.561,45.567-45.561s45.567,20.438,45.567,45.561C112.2,342.248,103.809,357.34,90.623,365.769z"/>
<path d="M43.14,173.95c-2.087,0-3.735-0.601-4.548-0.97c-1.992-0.903-8.309-4.649-5.983-14.9l11.342-50.015h-14.1
	c-5.608,0-10.425-2.643-12.887-7.07c-2.461-4.426-2.163-9.912,0.796-14.675L67.053,7.056c5.516-8.875,12.633-7.155,14.681-6.417
	c2.05,0.738,8.627,3.952,7.216,14.303l-6.883,50.442h18.708c5.768,0,10.608,2.737,12.944,7.322
	c2.336,4.584,1.708,10.106-1.681,14.773l-58.293,80.187C50.089,172.693,46.156,173.95,43.14,173.95z M41.824,87.178h15.205
	c3.176,0,6.179,1.445,8.161,3.927c1.981,2.481,2.726,5.729,2.024,8.827l-4.509,19.887l24.386-33.545H70.1
	c-3.016,0-5.885-1.304-7.868-3.576c-1.982-2.273-2.888-5.291-2.479-8.28l2.808-20.586L41.824,87.178z"/>
<path d="M294.088,235.612c6.436,0,11.673-5.237,11.673-11.673c0-6.438-5.237-11.674-11.673-11.674
	c-6.436,0-11.674,5.236-11.674,11.674C282.415,230.375,287.651,235.612,294.088,235.612z"/>
<path d="M217.912,212.265c-6.436,0-11.673,5.236-11.673,11.674c0,6.436,5.236,11.673,11.673,11.673
	c6.436,0,11.674-5.236,11.674-11.673C229.586,217.502,224.348,212.265,217.912,212.265z"/>
<path d="M467.504,491.113h-57.942v-70.615c0-20.358-12.286-39.694-29.875-47.023l-67.214-28.005
	c-2.39-0.995-3.934-3.312-3.934-5.902v-16.262l27.3-15.653c0.19-0.11,0.377-0.225,0.56-0.346
	c13.669-9.027,22.644-25.08,24.009-42.943c0.021-0.264,0.03-0.531,0.03-0.796v-8.67c13.562-4.411,23.393-17.174,23.393-32.189
	c0-15.015-9.831-27.777-23.393-32.189v-8.455h10.605c7.81,0,14.164-6.353,14.164-14.163v-20.827c0-6.779-4.787-12.46-11.159-13.842
	c-3.767-26.214-16.096-50.468-35.295-69.097c-13.745-13.337-30.38-23.158-48.506-28.702v-7.41c0-8.066-6.354-14.626-14.164-14.626
	h-40.166c-7.81,0-14.164,6.562-14.164,14.626v6.821c-18.901,5.419-36.219,15.443-50.49,29.29
	c-19.349,18.776-31.721,43.265-35.381,69.715c-5.311,2.045-9.088,7.201-9.088,13.223v20.827c0,7.81,6.354,14.163,14.164,14.163
	h10.605v8.455c-13.562,4.411-23.393,17.174-23.393,32.189c0,15.015,9.831,27.777,23.393,32.189v8.67c0,0.265,0.01,0.532,0.03,0.796
	c1.371,17.936,10.284,33.989,23.841,42.943c0.187,0.124,0.377,0.241,0.572,0.352l27.456,15.696v16.213
	c0,2.589-1.545,4.905-3.934,5.902l-67.214,28.006c-17.59,7.329-29.875,26.666-29.875,47.022v70.615H44.495
	c-5.767,0-10.444,4.676-10.444,10.444c0,5.768,4.677,10.444,10.444,10.444h423.009c5.767,0,10.444-4.676,10.444-10.444
	C477.948,495.787,473.272,491.113,467.504,491.113z M147.682,153.553c4.445-0.986,7.853-4.808,8.153-9.53
	c1.573-24.617,12.217-47.664,29.975-64.894c13.5-13.099,30.284-22.054,48.542-25.901c4.832-1.018,8.29-5.281,8.29-10.219v-8.722
	h26.717v9.159c0,4.866,3.36,9.086,8.101,10.177c17.55,4.04,33.715,12.858,46.747,25.505c17.758,17.23,28.402,40.276,29.975,64.894
	c0.345,5.403,4.756,9.629,10.137,9.774v7.382H147.682V153.553z M186.688,289.706c-7.98-5.404-13.278-15.285-14.239-26.558v-17.045
	c0-5.768-4.677-10.444-10.444-10.444c-7.14,0-12.949-5.81-12.949-12.949c0-7.139,5.81-12.949,12.949-12.949
	c5.767,0,10.444-4.676,10.444-10.444v-17.25h167.1v17.25c0,5.768,4.677,10.444,10.444,10.444c7.14,0,12.949,5.81,12.949,12.949
	c0,7.139-5.81,12.949-12.949,12.949c-5.767,0-10.444,4.676-10.444,10.444v17.043c-0.948,11.044-6.44,21.165-14.413,26.564
	l-56.072,32.151c-0.19,0.11-0.377,0.225-0.56,0.346c-7.831,5.171-17.177,5.171-25.008,0c-0.187-0.123-0.377-0.241-0.572-0.352
	L186.688,289.706z M245.608,491.113H123.326v-70.615c0-11.771,7.318-23.698,17.022-27.742l55.433-23.097l15.796,44.243
	c1.278,3.58,4.4,6.182,8.151,6.796c0.563,0.092,1.126,0.137,1.686,0.137c3.17,0,6.206-1.445,8.205-3.983l15.989-20.308v94.57
	H245.608z M214.709,360.554c6.387,5.989,13.964,10.489,22.237,13.223l-12.051,15.307L214.709,360.554z M224.331,340.076
	c0.003-0.17,0.019-0.337,0.019-0.509v-4.273l7.936,4.537c7.332,4.761,15.523,7.141,23.716,7.141c8.195,0,16.389-2.382,23.722-7.146
	l7.928-4.546v4.286c0,0.213,0.019,0.422,0.023,0.633c-7.491,9.912-19.071,15.749-31.623,15.749
	C243.437,355.95,231.818,350.066,224.331,340.076z M297.397,360.548l-10.188,28.535l-12.054-15.311
	C283.428,371.038,291.008,366.538,297.397,360.548z M388.675,491.113H266.495V396.54l15.99,20.31
	c1.999,2.539,5.035,3.983,8.205,3.983c0.559,0,1.123-0.045,1.686-0.137c3.751-0.613,6.873-3.216,8.151-6.796l15.783-44.205
	l55.344,23.06c9.703,4.043,17.021,15.97,17.021,27.742V491.113z"/>
<path d="M268.17,94.494h-1.682l4.602-5.677c3.632-4.481,2.943-11.058-1.537-14.689c-4.479-3.631-11.059-2.943-14.689,1.537
	l-18.397,22.697c-2.536,3.129-3.046,7.436-1.314,11.07c1.732,3.634,5.4,5.95,9.427,5.95h0.851l-6.805,7.921
	c-3.759,4.375-3.257,10.969,1.116,14.728c1.972,1.693,4.392,2.522,6.801,2.522c2.939,0,5.861-1.234,7.928-3.639l21.622-25.171
	c2.659-3.096,3.271-7.456,1.568-11.164C275.958,96.871,272.251,94.494,268.17,94.494z"/>
<path d="M479.648,190.386h-12.634v-69.47l19.217-18.324c2.824-2.692,3.911-6.734,2.82-10.48l-11.488-39.425
	c-1.298-4.457-5.384-7.523-10.027-7.523h-21.932c-4.642,0-8.728,3.065-10.027,7.523l-11.488,39.425
	c-1.091,3.745-0.004,7.788,2.82,10.48l19.216,18.324v69.47h-12.634c-5.767,0-10.444,4.676-10.444,10.444v94.05
	c0,18.483,15.037,33.521,33.521,33.521s33.521-15.037,33.521-33.521v-94.05C490.092,195.062,485.416,190.386,479.648,190.386z
	 M453.44,66.052h6.262l7.52,25.805l-10.651,10.156L445.92,91.858L453.44,66.052z M469.204,294.88
	c0,6.966-5.668,12.634-12.634,12.634s-12.634-5.668-12.634-12.634v-83.606h25.267v83.606H469.204z"/>
</svg>