<svg width="25" height="24" viewBox="0 0 25 24" fill="none" xmlns="http://www.w3.org/2000/svg">
<g clip-path="url(#clip0_113_1463)">
<path d="M10.25 18.25V14.75C10.25 14.1977 10.6977 13.75 11.25 13.75H13.75C14.3023 13.75 14.75 14.1977 14.75 14.75V18.25C14.75 19.3546 15.6454 20.25 16.75 20.25H19.75C20.3023 20.25 20.75 19.8023 20.75 19.25V9.77195C20.75 9.44492 20.5901 9.13855 20.3218 8.95155L13.0718 3.89852C12.7282 3.65905 12.2718 3.65905 11.9282 3.89852L4.67821 8.95155C4.40991 9.13855 4.25 9.44492 4.25 9.77195V19.25C4.25 19.8023 4.69772 20.25 5.25 20.25H8.25C9.35457 20.25 10.25 19.3546 10.25 18.25Z" stroke="#121331" stroke-width="1.5" stroke-linecap="round" stroke-linejoin="round"/>
</g>
<defs>
<clipPath id="clip0_113_1463">
<rect width="24" height="24" fill="white" transform="translate(0.5)"/>
</clipPath>
</defs>
</svg>
