<?xml version="1.0" standalone="no"?>
<!DOCTYPE svg PUBLIC "-//W3C//DTD SVG 20010904//EN"
 "http://www.w3.org/TR/2001/REC-SVG-20010904/DTD/svg10.dtd">
<svg version="1.0" xmlns="http://www.w3.org/2000/svg"
 width="1563.000000pt" height="1563.000000pt" viewBox="0 0 1563.000000 1563.000000"
 preserveAspectRatio="xMidYMid meet">

<g transform="translate(0.000000,1563.000000) scale(0.100000,-0.100000)"
fill="#000000" stroke="none">
<path d="M4472 10930 c-96 -14 -99 -19 -167 -250 -58 -200 -58 -199 -156 -240
-46 -19 -100 -34 -119 -34 -24 0 -95 28 -220 87 -102 48 -195 87 -206 87 -24
0 -44 -14 -167 -119 -77 -66 -159 -155 -234 -255 -13 -17 -23 -41 -23 -54 0
-20 73 -169 166 -339 l29 -52 -29 -83 c-45 -130 -61 -154 -120 -177 -28 -11
-107 -37 -175 -56 -168 -49 -198 -65 -208 -112 -4 -21 -8 -148 -8 -283 0 -303
-7 -286 137 -329 206 -62 265 -83 292 -99 21 -13 38 -42 67 -116 21 -54 39
-107 39 -117 0 -11 -43 -99 -95 -197 -52 -98 -95 -190 -95 -204 0 -36 90 -147
221 -272 106 -102 179 -156 212 -156 11 0 74 29 141 64 157 83 330 131 351 97
3 -5 27 -17 54 -26 78 -26 91 -46 139 -211 24 -82 49 -167 55 -188 17 -56 48
-73 152 -87 92 -12 376 -6 445 9 39 9 72 55 90 127 6 22 19 67 29 100 11 33
29 92 41 132 14 46 30 77 44 86 25 16 199 87 214 87 5 0 59 -24 119 -54 60
-30 115 -56 123 -58 11 -2 13 37 10 247 -2 138 -2 293 1 345 2 52 4 456 4 898
0 441 3 802 6 802 4 0 30 -42 60 -92 29 -51 119 -203 199 -338 148 -248 459
-770 809 -1357 143 -240 197 -324 214 -328 12 -3 54 -5 92 -3 l70 3 0 1270 0
1270 -190 0 -190 0 -3 -36 c-3 -34 -1 -37 29 -43 17 -3 65 -6 105 -6 l74 0 0
-835 c0 -535 -3 -835 -10 -835 -5 0 -17 15 -26 33 -9 17 -85 140 -169 272
-140 221 -304 481 -719 1140 -87 138 -169 265 -183 284 l-26 34 -176 -5 -176
-5 -80 42 c-44 24 -103 50 -132 59 -28 10 -56 22 -61 29 -11 14 -84 246 -102
326 -7 30 -24 66 -39 83 -23 25 -36 30 -111 38 -98 11 -340 11 -418 0z m373
-1165 c153 -39 234 -84 341 -190 75 -73 99 -106 133 -175 48 -98 61 -164 60
-325 0 -213 -27 -309 -123 -434 -108 -140 -233 -221 -411 -266 -118 -30 -178
-31 -288 -5 -113 26 -179 53 -259 106 -292 194 -396 598 -237 916 96 192 254
317 471 372 122 31 193 32 313 1z"/>
<path d="M8495 10419 c-299 -52 -603 -195 -834 -391 -85 -71 -240 -241 -283
-307 l-28 -45 0 -393 c0 -216 3 -393 8 -393 4 0 68 66 142 147 350 381 341
372 378 379 43 8 243 -3 254 -14 12 -12 -245 -313 -431 -505 -41 -42 -53 -61
-46 -71 6 -7 64 -85 129 -172 66 -87 155 -208 199 -269 44 -60 82 -108 85
-105 3 3 22 52 43 110 92 261 146 414 238 665 l98 270 139 0 139 0 17 -35 c21
-42 131 -343 154 -420 23 -77 24 -78 44 -23 10 26 43 119 74 207 66 186 96
258 110 268 20 14 262 9 274 -4 5 -7 35 -83 65 -168 31 -85 113 -312 183 -505
126 -347 177 -508 166 -519 -3 -3 -54 -6 -114 -6 -78 0 -110 3 -112 13 -2 6
-26 73 -53 147 l-48 135 -208 3 c-169 2 -207 0 -207 -11 0 -8 18 -66 40 -130
22 -63 40 -125 40 -136 0 -21 -4 -21 -224 -21 -124 0 -227 4 -230 9 -6 9 61
218 82 258 7 12 12 24 12 27 0 3 -96 6 -214 6 l-215 0 -19 -52 c-11 -29 -31
-89 -46 -133 -14 -44 -30 -86 -35 -94 -12 -19 -89 -31 -228 -38 -73 -3 -118
-1 -132 7 -12 6 -47 46 -78 88 -76 104 -214 290 -282 381 l-55 73 -68 -70 -68
-70 0 -278 0 -278 43 -65 c49 -76 191 -228 286 -305 269 -219 600 -356 936
-387 160 -15 410 -6 547 21 593 114 1095 539 1282 1084 42 121 65 238 78 398
39 482 -137 927 -505 1274 -236 223 -569 387 -897 443 -166 28 -463 28 -625 0z"/>
<path d="M8571 8989 c-11 -25 -38 -95 -60 -155 -21 -60 -48 -132 -59 -161 -12
-29 -18 -54 -14 -55 4 -2 75 -1 159 2 l151 5 -25 60 c-13 33 -44 118 -68 188
-60 174 -59 172 -84 116z"/>
<path d="M9245 9018 c-2 -7 -34 -94 -71 -193 -36 -99 -68 -187 -70 -195 -4
-13 15 -15 148 -12 84 2 154 5 155 6 3 2 -107 306 -136 379 -11 29 -19 34 -26
15z"/>
</g>
</svg>
