<?xml version="1.0" encoding="iso-8859-1"?>
<!-- Uploaded to: SVG Repo, www.svgrepo.com, Generator: SVG Repo Mixer Tools -->
<svg version="1.1" id="Layer_1" xmlns="http://www.w3.org/2000/svg" xmlns:xlink="http://www.w3.org/1999/xlink" 
	 viewBox="0 0 512.002 512.002" xml:space="preserve">
<path style="fill:#E03F43;" d="M213.867,319.128v20.352c0,6.799-4.088,12.932-10.365,15.548l-67.24,28.017
	c-14.206,5.92-23.458,22.007-23.458,37.397v81.091h286.348v-81.091c0-15.389-9.254-31.478-23.458-37.397l-67.24-28.017
	c-6.277-2.615-10.365-8.749-10.365-15.548v-20.352H213.867z"/>
<path style="fill:#102F50;" d="M353.079,501.534v-96.018c0-10.48,3.554-20.167,9.506-27.93l-54.133-22.555
	c-6.277-2.615-10.365-8.749-10.365-15.548l-0.094,37.531c0,23.081-18.884,41.966-41.966,41.966l0,0
	c-23.081,0-41.966-18.884-41.966-41.966l-0.195-37.531c0,6.799-4.088,12.932-10.365,15.548l-54.133,22.556
	c5.952,7.764,9.506,17.45,9.506,27.93v96.018h194.205V501.534z"/>
<g>
	<path style="fill:#FEBBA0;" d="M350.007,199.175v-30.443c0-51.829-42.017-93.846-93.846-93.846
		c-51.831,0-93.846,42.017-93.846,93.846h-0.368v30.443c-12.925,0-23.403,10.478-23.403,23.403
		c0,12.925,10.478,23.403,23.403,23.403v17.472c1.126,14.735,8.311,27.853,19.192,35.038l56.574,32.342
		c11.36,7.503,25.173,7.503,36.533,0l56.405-32.342c10.879-7.185,18.232-20.303,19.36-35.038v-17.472
		c12.925,0,23.403-10.478,23.403-23.403C373.41,209.653,362.932,199.175,350.007,199.175z"/>
	<path style="fill:#FEBBA0;" d="M298.087,319.128v57.883c0,23.081-18.978,41.966-42.06,41.966l0,0
		c-23.081,0-42.161-18.884-42.161-41.966v-57.883"/>
</g>
<path style="fill:#C9DEE4;" d="M473.342,352.776V244.375c8.787-5.553,14.627-15.346,14.627-26.508
	c0-9.819-4.519-18.58-11.586-24.328c-0.934,10.095-9.419,18.001-19.758,18.001s-18.824-7.906-19.758-18.001
	c-7.068,5.747-11.586,14.508-11.586,24.328c0,11.162,5.84,20.955,14.627,26.508v108.401c-8.787,5.553-14.627,15.346-14.627,26.508
	c0,9.819,4.519,18.58,11.586,24.328c0.934-10.095,9.419-18.001,19.758-18.001s18.823,7.906,19.758,18.001
	c7.068-5.747,11.586-14.508,11.586-24.328C487.969,368.122,482.129,358.329,473.342,352.776z"/>
<path style="fill:#0F8EE3;" d="M86.773,71.819c0,18.72-14.035,30.565-31.343,30.565S24.086,90.54,24.086,71.819
	c0-27.126,31.343-50.928,31.343-50.928S86.773,44.694,86.773,71.819z"/>
<path style="fill:#102F50;" d="M138.842,295.713H81.063H23.285c-7.029,0-12.781,5.752-12.781,12.781l0,0
	c0,7.029,5.752,12.781,12.781,12.781h0.006c0,31.907,25.866,57.772,57.772,57.772s57.772-25.866,57.772-57.772h0.006
	c7.029,0,12.781-5.752,12.781-12.781l0,0C151.623,301.463,145.871,295.713,138.842,295.713z"/>
<path style="fill:#E03F43;" d="M490.449,68.943c0-1.619-0.095-3.216-0.265-4.789l11.369-15.531
	c-2.313-6.236-5.658-11.971-9.828-16.996l-19.093,2.076c-2.59-1.91-5.399-3.538-8.381-4.846l-7.742-17.559
	c-3.195-0.54-6.473-0.837-9.822-0.837s-6.627,0.297-9.822,0.837l-7.743,17.56c-2.982,1.308-5.791,2.936-8.381,4.846l-19.093-2.076
	c-4.171,5.025-7.515,10.76-9.828,16.996l11.369,15.531c-0.171,1.573-0.265,3.17-0.265,4.789c0,1.634,0.097,3.245,0.272,4.833
	L391.82,89.316c2.313,6.236,5.658,11.971,9.828,16.996l19.157-2.083c2.564,1.884,5.342,3.492,8.288,4.787l7.771,17.624
	c3.195,0.54,6.472,0.837,9.822,0.837s6.627-0.297,9.822-0.837l7.771-17.624c2.947-1.296,5.724-2.903,8.289-4.787l19.157,2.083
	c4.171-5.025,7.515-10.76,9.828-16.996L490.18,73.778C490.352,72.189,490.449,70.578,490.449,68.943z M446.685,87.174
	c-10.07,0-18.231-8.163-18.231-18.231c0-10.069,8.163-18.231,18.231-18.231s18.231,8.163,18.231,18.231
	C464.917,79.013,456.754,87.174,446.685,87.174z"/>
<g>
	<path style="fill:#1990E0;" d="M360.455,158.233l-1.629-34.416h0.01l-3.392-44.051c-1.336-17.235-13.748-31.588-30.617-35.377
		l-68.635-15.418l0,0l-0.021-0.01h-0.01l-68.656,15.428c-16.869,3.789-29.291,18.143-30.617,35.377l-3.392,44.051l-1.629,34.416
		c-1.033,13.257,13.424,22.11,24.739,15.125c48.624-30.064,110.483-30.064,159.108,0C347.03,180.343,361.477,171.49,360.455,158.233
		z"/>
	<rect x="189.429" y="456.611" style="fill:#1990E0;" width="133.471" height="44.926"/>
</g>
<path d="M10.585,511.982h-0.137C4.677,511.982,0,507.305,0,501.534c0-5.77,4.677-10.448,10.448-10.448h0.137
	c5.77,0,10.448,4.677,10.448,10.448C21.032,507.305,16.355,511.982,10.585,511.982z"/>
<path d="M501.5,511.981h-0.137c-5.77,0-10.448-4.677-10.448-10.448s4.677-10.448,10.448-10.448h0.137
	c5.77,0,10.448,4.677,10.448,10.448S507.27,511.981,501.5,511.981z"/>
<path d="M294.08,235.485c-6.44,0-11.679-5.239-11.679-11.678c0-6.44,5.239-11.679,11.679-11.679s11.679,5.239,11.679,11.679
	C305.757,230.247,300.519,235.485,294.08,235.485z"/>
<path d="M217.874,235.485c-6.44,0-11.679-5.239-11.679-11.678c0-6.44,5.239-11.679,11.679-11.679s11.679,5.239,11.679,11.679
	C229.553,230.247,224.314,235.485,217.874,235.485z"/>
<path d="M256.02,292.46c-11.39,0-20.657-9.267-20.657-20.657c0-5.77,4.677-10.448,10.448-10.448h20.419
	c5.77,0,10.448,4.677,10.448,10.448C276.678,283.193,267.411,292.46,256.02,292.46z"/>
<path d="M476.381,414.06c-1.368,0-2.743-0.268-4.047-0.816c-3.556-1.495-5.999-4.828-6.355-8.669
	c-0.449-4.854-4.471-8.515-9.354-8.515c-4.883,0-8.905,3.661-9.354,8.515c-0.355,3.842-2.799,7.174-6.355,8.669
	c-3.556,1.495-7.646,0.909-10.64-1.525c-9.814-7.98-15.442-19.802-15.442-32.433c0-12.382,5.376-23.875,14.627-31.758v-97.901
	c-9.25-7.884-14.627-19.378-14.627-31.758c0-12.631,5.628-24.453,15.442-32.433c2.993-2.434,7.083-3.02,10.64-1.525
	c3.556,1.495,5.999,4.828,6.355,8.669c0.449,4.855,4.471,8.516,9.354,8.516c4.883,0,8.905-3.661,9.354-8.516
	c0.355-3.842,2.799-7.175,6.355-8.669c3.556-1.493,7.648-0.908,10.64,1.525c9.814,7.98,15.442,19.802,15.442,32.433
	c0,12.381-5.376,23.874-14.627,31.758v97.901c9.251,7.884,14.627,19.376,14.627,31.758c0,12.632-5.628,24.454-15.442,32.433
	C481.079,413.26,478.744,414.06,476.381,414.06z M456.626,375.164c7.923,0,15.141,2.991,20.544,7.96
	c0.233-1.254,0.352-2.538,0.352-3.84c0-7.206-3.648-13.814-9.76-17.676c-3.03-1.915-4.867-5.248-4.867-8.833V244.375
	c0-3.584,1.837-6.917,4.867-8.833c6.112-3.863,9.76-10.47,9.76-17.676c0-1.302-0.12-2.586-0.352-3.84
	c-5.403,4.969-12.621,7.96-20.544,7.96s-15.141-2.991-20.544-7.96c-0.233,1.254-0.352,2.538-0.352,3.84
	c0,7.206,3.649,13.814,9.76,17.676c3.029,1.915,4.867,5.248,4.867,8.833v108.401c0,3.584-1.837,6.917-4.867,8.833
	c-6.112,3.862-9.76,10.47-9.76,17.676c0,1.302,0.12,2.586,0.352,3.84C441.486,378.155,448.704,375.164,456.626,375.164z"/>
<path d="M55.43,112.832c-24.216,0-41.791-17.248-41.791-41.013c0-31.942,34.024-58.148,35.472-59.247
	c3.735-2.837,8.903-2.837,12.638,0c1.448,1.1,35.472,27.305,35.472,59.247C97.221,95.584,79.646,112.832,55.43,112.832z
	 M55.447,34.688c-8.859,8.476-20.912,23.132-20.912,37.132c0,13.897,10.495,20.117,20.896,20.117s20.896-6.221,20.896-20.117
	C76.325,57.74,64.304,43.133,55.447,34.688z"/>
<path d="M96.576,310.796H96.44c-5.77,0-10.448,4.677-10.448,10.448c0,5.77,4.677,10.448,10.448,10.448h0.137
	c5.77,0,10.448-4.677,10.448-10.448C107.024,315.474,102.346,310.796,96.576,310.796z"/>
<path d="M446.686,137.926c-3.813,0-7.705-0.331-11.564-0.983c-3.463-0.586-6.4-2.872-7.817-6.086l-6.232-14.135
	c-0.995-0.534-1.974-1.099-2.932-1.693l-15.363,1.671c-3.492,0.377-6.93-1.017-9.169-3.714c-4.982-6.002-8.88-12.743-11.585-20.035
	c-1.22-3.29-0.708-6.973,1.366-9.805l9.116-12.452c-0.02-0.588-0.029-1.171-0.029-1.749c0-0.562,0.009-1.128,0.027-1.698
	l-9.114-12.451c-2.073-2.831-2.586-6.515-1.366-9.805c2.705-7.292,6.603-14.032,11.585-20.035c2.239-2.699,5.683-4.097,9.169-3.714
	l15.29,1.662c0.993-0.616,2.005-1.201,3.035-1.754l6.203-14.066c1.417-3.214,4.355-5.501,7.817-6.086
	c7.715-1.305,15.414-1.305,23.128,0c3.462,0.586,6.4,2.872,7.817,6.086l6.203,14.066c1.03,0.553,2.044,1.138,3.035,1.754
	l15.289-1.662c3.489-0.377,6.929,1.016,9.168,3.713c4.983,6.002,8.881,12.743,11.586,20.036c1.22,3.29,0.708,6.973-1.366,9.805
	l-9.114,12.451c0.019,0.57,0.028,1.137,0.028,1.698c0,0.578-0.009,1.161-0.029,1.749l9.116,12.452
	c2.073,2.831,2.586,6.515,1.366,9.805c-2.705,7.293-6.603,14.033-11.586,20.036c-2.239,2.698-5.685,4.094-9.168,3.713l-15.363-1.671
	c-0.958,0.593-1.937,1.159-2.932,1.693l-6.232,14.135c-1.417,3.214-4.354,5.501-7.817,6.086
	C454.39,137.594,450.499,137.926,446.686,137.926z M444.01,116.952c1.795,0.103,3.555,0.103,5.35,0l5.358-12.152
	c1.053-2.389,2.964-4.297,5.354-5.349c2.232-0.981,4.354-2.207,6.307-3.642c2.107-1.547,4.716-2.249,7.316-1.967l13.212,1.437
	c0.979-1.492,1.871-3.034,2.676-4.624l-7.837-10.707c-1.543-2.107-2.241-4.716-1.956-7.312c0.139-1.262,0.209-2.504,0.209-3.693
	c0-1.179-0.069-2.41-0.205-3.66c-0.282-2.592,0.416-5.196,1.957-7.3l7.832-10.699c-0.804-1.589-1.698-3.132-2.676-4.624
	l-13.149,1.43c-2.607,0.283-5.222-0.423-7.33-1.978c-1.974-1.455-4.12-2.697-6.378-3.687c-2.394-1.05-4.307-2.96-5.361-5.352
	l-5.329-12.086c-1.796-0.103-3.555-0.103-5.351,0l-5.329,12.086c-1.054,2.392-2.967,4.301-5.361,5.352
	c-2.259,0.991-4.405,2.232-6.378,3.687c-2.108,1.555-4.723,2.261-7.33,1.978l-13.149-1.43c-0.978,1.492-1.871,3.035-2.676,4.624
	l7.832,10.699c1.541,2.105,2.239,4.71,1.957,7.303c-0.136,1.244-0.205,2.475-0.205,3.657c0,1.189,0.07,2.431,0.209,3.693
	c0.285,2.595-0.413,5.204-1.956,7.312l-7.837,10.707c0.804,1.589,1.698,3.132,2.676,4.624l13.212-1.437
	c2.604-0.282,5.209,0.419,7.316,1.967c1.954,1.437,4.076,2.661,6.307,3.642c2.39,1.051,4.301,2.96,5.354,5.349L444.01,116.952z
	 M446.686,97.622c-15.814,0-28.679-12.865-28.679-28.679s12.865-28.679,28.679-28.679c15.814,0,28.679,12.865,28.679,28.679
	S462.499,97.622,446.686,97.622z M446.686,61.159c-4.292,0-7.784,3.492-7.784,7.784s3.492,7.784,7.784,7.784
	c4.292,0,7.784-3.492,7.784-7.784S450.976,61.159,446.686,61.159z"/>
<path d="M467.562,491.087h-57.963v-70.643c0-20.365-12.291-39.709-29.888-47.041l-67.24-28.016c-2.39-0.996-3.936-3.313-3.936-5.904
	v-16.269l27.31-15.659c0.19-0.109,0.377-0.225,0.561-0.346c13.674-9.03,22.654-25.09,24.02-42.96c0.021-0.264,0.03-0.531,0.03-0.796
	v-8.674c13.568-4.413,23.402-17.18,23.402-32.201c0-15.021-9.835-27.788-23.402-32.201v-9.665
	c7.124-5.435,11.072-14.035,10.429-23.108l-1.6-33.806c0-0.26-0.01-0.521-0.03-0.783l-3.393-44.056
	c-1.702-21.952-17.271-39.941-38.744-44.763l-68.351-15.354c-1.592-0.407-3.287-0.436-4.896-0.074l-68.655,15.429
	c-21.485,4.826-37.055,22.817-38.745,44.768l-3.392,44.052c-0.007,0.103-0.015,0.206-0.019,0.308l-1.621,34.277
	c-0.636,8.919,3.163,17.384,10.06,22.834v9.943c-13.568,4.413-23.402,17.18-23.402,32.201s9.835,27.788,23.402,32.201v8.674
	c0,0.265,0.01,0.532,0.03,0.796c1.372,17.943,10.288,34.002,23.851,42.96c0.187,0.123,0.378,0.24,0.573,0.352l27.466,15.702v16.219
	c0,2.59-1.545,4.907-3.936,5.904l-67.241,28.017c-17.597,7.333-29.887,26.676-29.887,47.04v70.643H91.511V388.679
	c30.008-4.634,53.629-28.883,57.281-59.2c7.843-3.733,13.277-11.738,13.277-20.988c0-12.808-10.421-23.228-23.228-23.228H23.285
	c-12.808,0-23.228,10.421-23.228,23.229c0,9.249,5.433,17.252,13.277,20.985c3.649,30.32,27.272,54.568,57.282,59.201v102.406
	H44.384c-5.77,0-10.448,4.677-10.448,10.448s4.677,10.448,10.448,10.448h423.178c5.77,0,10.448-4.677,10.448-10.448
	S473.333,491.087,467.562,491.087z M34.909,331.692h27.73c5.77,0,10.448-4.677,10.448-10.448c0-5.77-4.677-10.448-10.448-10.448
	H24.152c-0.243,0-0.482,0.02-0.722,0.037c-0.049-0.001-0.096-0.007-0.145-0.007c-1.264,0-2.332-1.068-2.332-2.333
	c0-1.264,1.068-2.332,2.332-2.332h115.558c1.264,0,2.332,1.068,2.332,2.333c0,1.264-1.068,2.332-2.339,2.332
	c-5.77,0-10.448,4.677-10.448,10.448c0,26.094-21.23,47.324-47.324,47.324C58.55,368.598,39.669,352.789,34.909,331.692z
	 M171.12,164.468c-2.724,1.68-5.141,0.567-6.056,0.009c-0.919-0.561-3.032-2.214-2.781-5.432c0.008-0.107,0.015-0.212,0.02-0.319
	l0.947-20.004c28.723-14.12,60.714-21.565,92.91-21.565s64.187,7.445,92.911,21.565l0.947,20.003
	c0.004,0.103,0.011,0.207,0.02,0.309c0.249,3.227-1.867,4.881-2.789,5.443c-0.912,0.555-3.328,1.667-6.04-0.007
	c-25.509-15.773-54.918-24.109-85.048-24.109C226.031,140.362,196.623,148.7,171.12,164.468z M189.796,54.582l66.357-14.912
	l66.384,14.912c12.463,2.8,21.502,13.244,22.489,25.986l2.661,34.546c-28.761-12.357-60.054-18.851-91.527-18.851
	c-31.469,0-62.757,6.493-91.515,18.846l2.66-34.541C168.286,67.825,177.323,57.384,189.796,54.582z M186.64,289.601
	c-7.984-5.406-13.283-15.291-14.245-26.569V245.98c0-5.77-4.677-10.448-10.448-10.448c-7.143,0-12.954-5.812-12.954-12.954
	s5.812-12.954,12.954-12.954c5.77,0,10.448-4.677,10.448-10.448v-13.299c3.374-0.557,6.672-1.758,9.707-3.632
	c44.99-27.816,103.129-27.817,148.126,0.004c2.921,1.803,6.088,2.981,9.332,3.563v13.363c0,5.77,4.677,10.448,10.448,10.448
	c7.143,0,12.954,5.812,12.954,12.954c0,7.142-5.812,12.954-12.954,12.954c-5.77,0-10.448,4.677-10.448,10.448v17.05
	c-0.949,11.049-6.442,21.173-14.419,26.574l-56.093,32.164c-0.191,0.11-0.377,0.225-0.561,0.346c-7.831,5.174-17.184,5.174-25.017,0
	c-0.187-0.124-0.377-0.241-0.573-0.352L186.64,289.601z M287.64,335.194v41.817c0,17.379-14.181,31.518-31.612,31.518
	c-17.487,0-31.713-14.139-31.713-31.518v-41.804l7.938,4.539c7.333,4.763,15.529,7.144,23.725,7.144
	c8.198,0,16.396-2.383,23.73-7.148L287.64,335.194z M148.427,491.087h-25.176v-70.643c0-11.776,7.321-23.707,17.029-27.753
	l4.87-2.029c2.153,4.627,3.276,9.656,3.276,14.855v85.57H148.427z M312.446,491.087H199.875v-24.03h112.571L312.446,491.087
	L312.446,491.087z M342.632,405.516v85.571h-9.29v-34.478c0-5.77-4.677-10.448-10.448-10.448H189.427
	c-5.77,0-10.448,4.677-10.448,10.448v34.478h-9.657v-85.571c0-8.003-1.666-15.746-4.869-22.897l38.965-16.235v10.629
	c0,28.901,23.601,52.414,52.609,52.414c28.953,0,52.508-23.513,52.508-52.414v-10.629l38.965,16.235
	C344.298,389.77,342.632,397.513,342.632,405.516z M388.703,491.087h-25.176v-85.571c0-5.199,1.123-10.226,3.277-14.855l4.871,2.029
	c9.708,4.045,17.029,15.976,17.029,27.753v70.644H388.703z"/>
</svg>